G04 #@! TF.GenerationSoftware,KiCad,Pcbnew,7.0.9-7.0.9~ubuntu22.04.1*
G04 #@! TF.CreationDate,2023-12-08T11:13:10+02:00*
G04 #@! TF.ProjectId,ESP32-H2-DevKit-LiPo_Rev_A,45535033-322d-4483-922d-4465764b6974,A*
G04 #@! TF.SameCoordinates,PX7cc0090PY6a95280*
G04 #@! TF.FileFunction,Paste,Top*
G04 #@! TF.FilePolarity,Positive*
%FSLAX46Y46*%
G04 Gerber Fmt 4.6, Leading zero omitted, Abs format (unit mm)*
G04 Created by KiCad (PCBNEW 7.0.9-7.0.9~ubuntu22.04.1) date 2023-12-08 11:13:10*
%MOMM*%
%LPD*%
G01*
G04 APERTURE LIST*
%ADD10R,0.550000X0.500000*%
%ADD11R,0.500000X0.550000*%
%ADD12R,1.400000X1.000000*%
%ADD13R,1.000000X1.400000*%
%ADD14C,1.000000*%
%ADD15R,0.230000X0.980000*%
%ADD16R,0.800000X0.800000*%
%ADD17R,1.200000X0.550000*%
%ADD18R,2.100000X3.200000*%
%ADD19R,2.100000X3.000000*%
%ADD20R,1.100000X2.200000*%
%ADD21R,1.100000X2.000000*%
%ADD22R,0.280000X1.130000*%
%ADD23R,0.230000X1.130000*%
%ADD24R,1.200000X3.100000*%
%ADD25R,0.600000X1.550000*%
%ADD26R,1.000000X1.800000*%
%ADD27R,1.000000X2.200000*%
%ADD28R,2.400000X2.900000*%
%ADD29R,0.800000X0.400000*%
%ADD30R,0.400000X0.800000*%
%ADD31R,1.450000X1.450000*%
%ADD32R,0.700000X0.700000*%
G04 APERTURE END LIST*
D10*
X8255000Y18669000D03*
X8255000Y19685000D03*
D11*
X4318000Y44196000D03*
X3302000Y44196000D03*
D10*
X5207000Y45974000D03*
X5207000Y44958000D03*
D12*
X3429000Y15616000D03*
X3429000Y11816000D03*
D13*
X12070000Y11557000D03*
X15870000Y11557000D03*
D14*
X3683000Y47117000D03*
D10*
X9652000Y12446000D03*
X9652000Y11430000D03*
X5080000Y12446000D03*
X5080000Y11430000D03*
X21971000Y12446000D03*
X21971000Y11430000D03*
D13*
X5139000Y42715000D03*
X2989000Y42715000D03*
X5139000Y38565000D03*
X2989000Y38565000D03*
D15*
X6366000Y17259000D03*
X6866000Y17259000D03*
X7366000Y17259000D03*
X7866000Y17259000D03*
X8366000Y17259000D03*
X8366000Y12459000D03*
X7866000Y12459000D03*
X7366000Y12459000D03*
X6866000Y12459000D03*
X6366000Y12459000D03*
D11*
X11914000Y23241000D03*
X12930000Y23241000D03*
D10*
X17907000Y30607000D03*
X17907000Y31623000D03*
D11*
X3048000Y37211000D03*
X4064000Y37211000D03*
D16*
X21590000Y22733000D03*
X20066000Y22733000D03*
D13*
X14361000Y22225000D03*
X18161000Y22225000D03*
X17142460Y20193000D03*
X15240000Y20193000D03*
X16195040Y17983200D03*
D11*
X19939000Y13589000D03*
X18923000Y13589000D03*
D10*
X19177000Y31623000D03*
X19177000Y30607000D03*
X15621000Y29972000D03*
X15621000Y30988000D03*
D17*
X16921000Y14417000D03*
X16921000Y15367000D03*
X16921000Y16317000D03*
X14321000Y16317000D03*
X14321000Y14417000D03*
D18*
X23977600Y7475000D03*
X14122400Y7475000D03*
D19*
X23977600Y3295000D03*
X14122400Y3295000D03*
D20*
X23977600Y7475000D03*
X14122400Y7475000D03*
D21*
X23977600Y3295000D03*
X14122400Y3295000D03*
D22*
X15725000Y8377000D03*
X16525000Y8377000D03*
D23*
X17800000Y8377000D03*
X18800000Y8377000D03*
X19300000Y8377000D03*
X20300000Y8377000D03*
D22*
X21575000Y8377000D03*
X22375000Y8377000D03*
X22125000Y8377000D03*
X21325000Y8377000D03*
D23*
X20800000Y8377000D03*
X19800000Y8377000D03*
X18300000Y8377000D03*
X17300000Y8377000D03*
D22*
X16775000Y8377000D03*
X15975000Y8377000D03*
D16*
X21590000Y34036000D03*
X20066000Y34036000D03*
D11*
X20320000Y35433000D03*
X21336000Y35433000D03*
X9882000Y23241000D03*
X10898000Y23241000D03*
D10*
X18669000Y34671000D03*
X18669000Y35687000D03*
D13*
X22411000Y42715000D03*
X20261000Y42715000D03*
X22411000Y38565000D03*
X20261000Y38565000D03*
D10*
X9906000Y14224000D03*
X9906000Y15240000D03*
D18*
X11277600Y7475000D03*
X1422400Y7475000D03*
D19*
X11277600Y3295000D03*
X1422400Y3295000D03*
D20*
X11277600Y7475000D03*
X1422400Y7475000D03*
D21*
X11277600Y3295000D03*
X1422400Y3295000D03*
D22*
X3025000Y8377000D03*
X3825000Y8377000D03*
D23*
X5100000Y8377000D03*
X6100000Y8377000D03*
X6600000Y8377000D03*
X7600000Y8377000D03*
D22*
X8875000Y8377000D03*
X9675000Y8377000D03*
X9425000Y8377000D03*
X8625000Y8377000D03*
D23*
X8100000Y8377000D03*
X7100000Y8377000D03*
X5600000Y8377000D03*
X4600000Y8377000D03*
D22*
X4075000Y8377000D03*
X3275000Y8377000D03*
D10*
X10414000Y32258000D03*
X10414000Y31242000D03*
D12*
X7838440Y30038040D03*
X7838440Y31940500D03*
X5628640Y30985460D03*
X11938000Y32191960D03*
X11938000Y30289500D03*
X14147800Y31244540D03*
D10*
X5334000Y33147000D03*
X5334000Y32131000D03*
X20447000Y31623000D03*
X20447000Y30607000D03*
X12573000Y15875000D03*
X12573000Y14859000D03*
X15240000Y35179000D03*
X15240000Y36195000D03*
X10668000Y12446000D03*
X10668000Y11430000D03*
D11*
X3048000Y36195000D03*
X4064000Y36195000D03*
D10*
X17907000Y12446000D03*
X17907000Y11430000D03*
X11938000Y35179000D03*
X11938000Y36195000D03*
D24*
X14740800Y26419000D03*
X3140800Y26419000D03*
D25*
X13440800Y28194000D03*
X12440800Y28194000D03*
X11440800Y28194000D03*
X10440800Y28194000D03*
X9440800Y28194000D03*
X8440800Y28194000D03*
X7440800Y28194000D03*
X6440800Y28194000D03*
X5440800Y28194000D03*
X4440800Y28194000D03*
D10*
X16764000Y30988000D03*
X16764000Y29972000D03*
D11*
X12827000Y13208000D03*
X13843000Y13208000D03*
D10*
X9398000Y30988000D03*
X9398000Y29972000D03*
X5334000Y35433000D03*
X5334000Y34417000D03*
X16383000Y36195000D03*
X16383000Y35179000D03*
D24*
X22256400Y26419000D03*
X16656400Y26419000D03*
D25*
X20956400Y28194000D03*
X19956400Y28194000D03*
X18956400Y28194000D03*
X17956400Y28194000D03*
D10*
X4953000Y15494000D03*
X4953000Y16510000D03*
X8255000Y21971000D03*
X8255000Y22987000D03*
D12*
X6731000Y22728000D03*
X6731000Y18928000D03*
D11*
X20828000Y37338000D03*
X21844000Y37338000D03*
D26*
X6751000Y34671000D03*
X9251000Y34671000D03*
D12*
X3429000Y21585000D03*
X3429000Y17785000D03*
D10*
X5080000Y21971000D03*
X5080000Y22987000D03*
D13*
X12197000Y33782000D03*
X15997000Y33782000D03*
D11*
X7874000Y36322000D03*
X8890000Y36322000D03*
D27*
X12930000Y21343000D03*
D28*
X11430000Y18493000D03*
D27*
X11430000Y21343000D03*
X9930000Y21343000D03*
D12*
X3683000Y31120000D03*
X3683000Y34920000D03*
D11*
X10922000Y36322000D03*
X9906000Y36322000D03*
X5842000Y36322000D03*
X6858000Y36322000D03*
D29*
X6799600Y46662300D03*
X6799600Y45862300D03*
X6799600Y45062300D03*
X6799600Y44262300D03*
X6799600Y43462300D03*
X6799600Y42662300D03*
X6799600Y41862300D03*
X6799600Y41062300D03*
X6799600Y40262300D03*
X6799600Y39462300D03*
X6799600Y38662300D03*
D30*
X7899600Y37762300D03*
X8699600Y37762300D03*
X9499600Y37762300D03*
X10299600Y37762300D03*
X11099600Y37762300D03*
X11899600Y37762300D03*
X12699600Y37762300D03*
X13499600Y37762300D03*
X14299600Y37762300D03*
X15099600Y37762300D03*
X15899600Y37762300D03*
X16699600Y37762300D03*
X17499600Y37762300D03*
D29*
X18599600Y38662300D03*
X18599600Y39462300D03*
X18599600Y40262300D03*
X18599600Y41062300D03*
X18599600Y41862300D03*
X18599600Y42662300D03*
X18599600Y43462300D03*
X18599600Y44262300D03*
X18599600Y45062300D03*
X18599600Y45862300D03*
X18599600Y46662300D03*
D30*
X17499600Y47562300D03*
X16699600Y47562300D03*
X15899600Y47562300D03*
X15099600Y47562300D03*
X14299600Y47562300D03*
X13499600Y47562300D03*
X12699600Y47562300D03*
X11899600Y47562300D03*
X11099600Y47562300D03*
X10299600Y47562300D03*
X9499600Y47562300D03*
X8699600Y47562300D03*
X7899600Y47562300D03*
D31*
X10724600Y44637300D03*
X10724600Y42662300D03*
X10724600Y40687300D03*
X12699600Y44637300D03*
X12699600Y42662300D03*
X12699600Y40687300D03*
X14674600Y44637300D03*
X14674600Y42662300D03*
X14674600Y40687300D03*
D32*
X18649600Y47612300D03*
X18649600Y37712300D03*
X6749600Y37712300D03*
X6749600Y47612300D03*
D10*
X5080000Y18669000D03*
X5080000Y19685000D03*
X10668000Y35306000D03*
X10668000Y34290000D03*
M02*
