G04 #@! TF.GenerationSoftware,KiCad,Pcbnew,7.0.9-7.0.9~ubuntu22.04.1*
G04 #@! TF.CreationDate,2023-12-08T11:13:10+02:00*
G04 #@! TF.ProjectId,ESP32-H2-DevKit-LiPo_Rev_A,45535033-322d-4483-922d-4465764b6974,A*
G04 #@! TF.SameCoordinates,PX7cc0090PY6a95280*
G04 #@! TF.FileFunction,Soldermask,Bot*
G04 #@! TF.FilePolarity,Negative*
%FSLAX46Y46*%
G04 Gerber Fmt 4.6, Leading zero omitted, Abs format (unit mm)*
G04 Created by KiCad (PCBNEW 7.0.9-7.0.9~ubuntu22.04.1) date 2023-12-08 11:13:10*
%MOMM*%
%LPD*%
G01*
G04 APERTURE LIST*
G04 Aperture macros list*
%AMRoundRect*
0 Rectangle with rounded corners*
0 $1 Rounding radius*
0 $2 $3 $4 $5 $6 $7 $8 $9 X,Y pos of 4 corners*
0 Add a 4 corners polygon primitive as box body*
4,1,4,$2,$3,$4,$5,$6,$7,$8,$9,$2,$3,0*
0 Add four circle primitives for the rounded corners*
1,1,$1+$1,$2,$3*
1,1,$1+$1,$4,$5*
1,1,$1+$1,$6,$7*
1,1,$1+$1,$8,$9*
0 Add four rect primitives between the rounded corners*
20,1,$1+$1,$2,$3,$4,$5,0*
20,1,$1+$1,$4,$5,$6,$7,0*
20,1,$1+$1,$6,$7,$8,$9,0*
20,1,$1+$1,$8,$9,$2,$3,0*%
G04 Aperture macros list end*
%ADD10C,0.701600*%
%ADD11O,1.301600X2.301600*%
%ADD12O,1.401600X2.101600*%
%ADD13RoundRect,0.050800X0.700000X-0.700000X0.700000X0.700000X-0.700000X0.700000X-0.700000X-0.700000X0*%
%ADD14C,1.501600*%
%ADD15RoundRect,0.050800X-0.889000X0.889000X-0.889000X-0.889000X0.889000X-0.889000X0.889000X0.889000X0*%
%ADD16C,1.879600*%
%ADD17RoundRect,0.050800X-0.584200X-0.800100X0.584200X-0.800100X0.584200X0.800100X-0.584200X0.800100X0*%
%ADD18RoundRect,0.050800X0.584200X0.800100X-0.584200X0.800100X-0.584200X-0.800100X0.584200X-0.800100X0*%
%ADD19RoundRect,0.050800X0.381000X0.254000X-0.381000X0.254000X-0.381000X-0.254000X0.381000X-0.254000X0*%
G04 APERTURE END LIST*
D10*
X21940000Y6975000D03*
X16160000Y6975000D03*
D11*
X23370000Y7475000D03*
X14730000Y7475000D03*
D12*
X23370000Y3295000D03*
X14730000Y3295000D03*
D10*
X9240000Y6975000D03*
X3460000Y6975000D03*
D11*
X10670000Y7475000D03*
X2030000Y7475000D03*
D12*
X10670000Y3295000D03*
X2030000Y3295000D03*
D13*
X19920680Y16503650D03*
D14*
X19918140Y18533110D03*
D15*
X1270000Y46685000D03*
D16*
X1270000Y44145000D03*
X1270000Y41605000D03*
X1270000Y39065000D03*
X1270000Y36525000D03*
X1270000Y33985000D03*
X1270000Y31445000D03*
X1270000Y28905000D03*
X1270000Y26365000D03*
X1270000Y23825000D03*
X1270000Y21285000D03*
X1270000Y18745000D03*
X1270000Y16205000D03*
X1270000Y13665000D03*
X1270000Y11125000D03*
D15*
X24130000Y46685000D03*
D16*
X24130000Y44145000D03*
X24130000Y41605000D03*
X24130000Y39065000D03*
X24130000Y36525000D03*
X24130000Y33985000D03*
X24130000Y31445000D03*
X24130000Y28905000D03*
X24130000Y26365000D03*
X24130000Y23825000D03*
X24130000Y21285000D03*
X24130000Y18745000D03*
X24130000Y16205000D03*
X24130000Y13665000D03*
X24130000Y11125000D03*
D17*
X15240000Y36957000D03*
X16764000Y36957000D03*
D18*
X10287000Y46228000D03*
X8763000Y46228000D03*
X10287000Y43942000D03*
X10287000Y43942000D03*
D19*
X9779000Y43942000D03*
X9271000Y43942000D03*
D18*
X8763000Y43942000D03*
M02*
