M48
; DRILL file {KiCad 7.0.9-7.0.9~ubuntu22.04.1} date  8.12.2023 (пт) 11:13:17
; FORMAT={-:-/ absolute / inch / decimal}
; #@! TF.CreationDate,2023-12-08T11:13:17+02:00
; #@! TF.GenerationSoftware,Kicad,Pcbnew,7.0.9-7.0.9~ubuntu22.04.1
; #@! TF.FileFunction,Plated,1,2,PTH
FMAT,2
INCH
; #@! TA.AperFunction,Plated,PTH,ViaDrill
T1C0.0157
; #@! TA.AperFunction,Plated,PTH,ViaDrill
T2C0.0236
; #@! TA.AperFunction,Plated,PTH,ComponentDrill
T3C0.0315
; #@! TA.AperFunction,Plated,PTH,ComponentDrill
T4C0.0354
; #@! TA.AperFunction,Plated,PTH,ComponentDrill
T5C0.0394
%
G90
G05
T1
X0.084Y1.088
X0.108Y1.727
X0.11Y1.56
X0.11Y1.125
X0.115Y1.6406
X0.115Y1.3306
X0.125Y0.92
X0.13Y0.76
X0.14Y1.155
X0.16Y0.9
X0.171Y1.05
X0.171Y1.005
X0.175Y1.69
X0.175Y1.64
X0.2Y1.5825
X0.225Y1.47
X0.225Y0.615
X0.231Y0.376
X0.29Y0.375
X0.3Y0.615
X0.305Y0.93
X0.3072Y1.81
X0.31Y1.675
X0.31Y1.635
X0.31Y1.53
X0.315Y1.37
X0.32Y1.2239
X0.33Y1.595
X0.35Y1.53
X0.35Y0.59
X0.351Y1.6756
X0.355Y1.02
X0.37Y1.245
X0.38Y1.64
X0.385Y0.625
X0.4096Y1.5159
X0.42Y1.64
X0.42Y1.16
X0.43Y1.31
X0.4461Y1.0539
X0.5137Y1.425
X0.53Y1.18
X0.54Y1.79
X0.5494Y1.3194
X0.55Y1.275
X0.575Y1.72
X0.575Y1.64
X0.585Y1.53
X0.595Y1.35
X0.61Y1.255
X0.625Y1.53
X0.65Y1.255
X0.655Y1.835
X0.665Y1.745
X0.67Y1.135
X0.6773Y1.325
X0.69Y1.8
X0.69Y1.575
X0.69Y1.53
X0.6928Y1.835
X0.6932Y1.386
X0.71Y0.395
X0.72Y1.445
X0.73Y1.285
X0.745Y1.055
X0.7665Y1.56
X0.77Y0.395
X0.775Y1.76
X0.775Y1.6
X0.785Y0.565
X0.81Y0.815
X0.835Y0.855
X0.845Y1.695
X0.855Y1.27
X0.865Y1.43
X0.915Y1.29
T2
X0.14Y0.21
X0.14Y0.045
X0.155Y0.425
X0.155Y0.385
X0.21Y1.735
X0.225Y1.855
X0.23Y0.565
X0.255Y0.95
X0.27Y0.145
X0.275Y0.565
X0.285Y0.81
X0.305Y0.435
X0.315Y0.275
X0.34Y0.045
X0.36Y0.735
X0.375Y0.215
X0.38Y0.39
X0.43Y0.655
X0.45Y0.55
X0.4608Y0.504
X0.465Y0.98
X0.515Y0.77
X0.515Y0.71
X0.525Y1.02
X0.535Y0.47
X0.54Y0.945
X0.56Y0.755
X0.57Y0.71
X0.58Y1.125
X0.585Y0.435
X0.595Y0.935
X0.615Y0.605
X0.615Y0.52
X0.62Y0.875
X0.625Y0.405
X0.63Y1.7
X0.65Y0.045
X0.66Y0.225
X0.67Y0.94
X0.67Y0.875
X0.72Y1.01
X0.7252Y0.9414
X0.74Y0.155
X0.81Y0.27
X0.835Y1.59
X0.835Y1.535
X0.85Y0.225
X0.88Y0.045
T4
X0.7842Y0.7297
X0.7843Y0.6497
T5
X0.05Y1.838
X0.05Y1.738
X0.05Y1.638
X0.05Y1.538
X0.05Y1.438
X0.05Y1.338
X0.05Y1.238
X0.05Y1.138
X0.05Y1.038
X0.05Y0.938
X0.05Y0.838
X0.05Y0.738
X0.05Y0.638
X0.05Y0.538
X0.05Y0.438
X0.95Y1.838
X0.95Y1.738
X0.95Y1.638
X0.95Y1.538
X0.95Y1.438
X0.95Y1.338
X0.95Y1.238
X0.95Y1.138
X0.95Y1.038
X0.95Y0.938
X0.95Y0.838
X0.95Y0.738
X0.95Y0.638
X0.95Y0.538
X0.95Y0.438
T3
G00X0.0799Y0.312
M15
G01X0.0799Y0.2766
M16
G05
G00X0.0799Y0.1415
M15
G01X0.0799Y0.1179
M16
G05
G00X0.4201Y0.312
M15
G01X0.4201Y0.2766
M16
G05
G00X0.4201Y0.1415
M15
G01X0.4201Y0.1179
M16
G05
G00X0.5799Y0.312
M15
G01X0.5799Y0.2766
M16
G05
G00X0.5799Y0.1415
M15
G01X0.5799Y0.1179
M16
G05
G00X0.9201Y0.312
M15
G01X0.9201Y0.2766
M16
G05
G00X0.9201Y0.1415
M15
G01X0.9201Y0.1179
M16
G05
T0
M30
